<svg width="40" height="40" viewBox="0 0 40 40" fill="none" xmlns="http://www.w3.org/2000/svg">
<path d="M16.5359 6C18.0755 3.33334 21.9245 3.33333 23.4641 6L33.8564 24C35.396 26.6667 33.4715 30 30.3923 30H9.6077C6.5285 30 4.60399 26.6667 6.14359 24L16.5359 6Z" fill="#FF916F"/>
<path d="M18.6521 16.252H21.3521V25H18.6521V16.252ZM18.4361 13.498C18.4361 13.066 18.5861 12.7 18.8861 12.4C19.1981 12.088 19.5701 11.932 20.0021 11.932C20.4341 11.932 20.8001 12.088 21.1001 12.4C21.4121 12.7 21.5681 13.066 21.5681 13.498C21.5681 13.93 21.4121 14.302 21.1001 14.614C20.8001 14.914 20.4341 15.064 20.0021 15.064C19.5701 15.064 19.1981 14.914 18.8861 14.614C18.5861 14.302 18.4361 13.93 18.4361 13.498Z" fill="white"/>
</svg>
